<svg xmlns="http://www.w3.org/2000/svg" version="1.1" xmlns:xlink="http://www.w3.org/1999/xlink" xmlns:svgjs="http://svgjs.dev/svgjs" width="1000" height="1000" viewBox="0 0 1000 1000"><rect width="1000" height="1000" fill="#ffffff"></rect><g transform="matrix(0.7,0,0,0.7,149.57575947766378,442.85669082835113)"><svg viewBox="0 0 396 65" data-background-color="#046380" preserveAspectRatio="xMidYMid meet" height="164" width="1000" xmlns="http://www.w3.org/2000/svg" xmlns:xlink="http://www.w3.org/1999/xlink"><g id="tight-bounds" transform="matrix(1,0,0,1,0.2399989240645084,-0.14533858569694758)"><svg viewBox="0 0 395.5199999999999 65.29067746934524" height="65.29067746934524" width="395.5199999999999"><g><svg viewBox="0 0 530.1594824605676 87.51636270390351" height="65.29067746934524" width="395.5199999999999"><g><rect width="5.710792985184031" height="63.64250688670263" x="410.4697198565027" y="11.936927908600442" fill="#000000" opacity="1" stroke-width="0" stroke="transparent" fill-opacity="1" class="rect-o-0" data-fill-palette-color="primary" rx="1%" id="o-0" data-palette-color="#ffffff"></rect></g><g transform="matrix(1,0,0,1,0,12.095242602348456)"><svg viewBox="0 0 395.52 63.3258774992066" height="63.3258774992066" width="395.52"><g id="textblocktransform"><svg viewBox="0 0 395.52 63.3258774992066" height="63.3258774992066" width="395.52" id="textblock"><g><svg viewBox="0 0 395.52 63.3258774992066" height="63.3258774992066" width="395.52"><g transform="matrix(1,0,0,1,0,0)"><svg width="395.52" viewBox="2.25 -39.25 311.7200012207031 50.45000076293945" height="63.3258774992066" data-palette-color="#ffffff"><g class="wordmark-text-0" data-fill-palette-color="primary" id="text-0"><path d="M14.55-35.25Q18.1-35.25 21.28-33.88 24.45-32.5 26.38-29.93 28.3-27.35 28.3-23.95L28.3-23.95Q28.3-20.8 26.6-18.43 24.9-16.05 21.93-14.78 18.95-13.5 15.15-13.5L15.15-13.5Q10.5-13.5 7.5-15.25L7.5-15.25 7.35-1.15Q7.35-0.4 6.95-0.03 6.55 0.35 5.95 0.35L5.95 0.35Q4.55 0.35 4.55-1.35L4.55-1.35Q4.55-3.35 4.65-7.35L4.65-7.35Q4.75-12.25 4.75-16.45L4.75-16.45Q4.75-22.1 4.55-28.3L4.55-28.3Q4.5-28.65 4.5-29.4L4.5-29.4 4-29.15Q3.7-29 3.4-29L3.4-29Q2.85-29 2.55-29.48 2.25-29.95 2.25-30.55L2.25-30.55Q2.25-31.15 3.15-31.65L3.15-31.65 4.4-32.35 4.4-33.65Q4.4-34.5 4.75-34.9 5.1-35.3 5.85-35.3L5.85-35.3Q7.2-35.3 7.2-34.35L7.2-34.35 7.2-33.7Q10.9-35.25 14.55-35.25L14.55-35.25ZM14.55-15.9Q17.8-15.9 20.28-16.98 22.75-18.05 24.08-19.9 25.4-21.75 25.4-24.05L25.4-24.05Q25.4-26.55 23.9-28.53 22.4-30.5 19.9-31.6 17.4-32.7 14.5-32.7L14.5-32.7Q11.25-32.7 7.25-30.85L7.25-30.85 7.25-29.8Q7.35-26.3 7.35-25.3L7.35-25.3Q7.35-23.9 7.45-20.9L7.45-20.9 7.5-17.7Q10.6-15.9 14.55-15.9L14.55-15.9ZM44.55-25.6Q47.85-25.6 49.52-23.6 51.2-21.6 51.2-18.85L51.2-18.85Q51.2-16.15 49.67-14.7 48.15-13.25 45.9-13.25L45.9-13.25Q45.1-13.25 44.77-13.5 44.45-13.75 44.45-14.35L44.45-14.35Q44.45-14.85 44.67-15.1 44.9-15.35 45.45-15.4L45.45-15.4Q46.95-15.55 47.87-16.25 48.8-16.95 48.8-18.85L48.8-18.85Q48.8-20.6 47.82-21.93 46.85-23.25 44.5-23.25L44.5-23.25Q41.2-23.25 39.42-19.9 37.65-16.55 37.25-11.55L37.25-11.55Q37-7.75 37-1.85L37-1.85Q37-0.55 36.72-0.08 36.45 0.4 35.7 0.4L35.7 0.4Q34.95 0.4 34.65 0.03 34.35-0.35 34.35-1.3L34.35-1.3 34.25-11.4Q34.25-15.4 33.65-21.8L33.65-21.8 33.4-25.05Q33.35-25.65 33.75-25.98 34.15-26.3 34.75-26.3L34.75-26.3Q35.35-26.3 35.65-25.95 35.95-25.6 35.95-25.1L35.95-25.1Q36.2-22.2 36.35-17.55L36.35-17.55Q37.05-21.55 39.25-23.58 41.45-25.6 44.55-25.6L44.55-25.6ZM61-29.05Q59.9-29.05 59.12-29.8 58.35-30.55 58.35-31.65L58.35-31.65Q58.35-32.8 59.12-33.58 59.9-34.35 61.1-34.35L61.1-34.35Q62.25-34.35 63-33.6 63.75-32.85 63.75-31.7L63.75-31.7Q63.75-30.55 62.95-29.8 62.15-29.05 61-29.05L61-29.05ZM60.25-0.3Q59.6-0.3 59.22-0.63 58.85-0.95 58.85-1.5L58.85-1.5 59.35-23.7Q59.35-25.1 60.75-25.1L60.75-25.1Q62.1-25.1 62.1-23.7L62.1-23.7 61.6-1.55Q61.55-0.95 61.2-0.63 60.85-0.3 60.25-0.3L60.25-0.3ZM83.09-25.4Q87.19-25.4 89.24-22.48 91.29-19.55 91.29-13.55L91.29-13.55 91.29-1.45Q91.29-0.1 89.99-0.1L89.99-0.1Q88.59-0.1 88.59-1.4L88.59-1.4 88.59-13.6Q88.59-18.45 87.34-20.73 86.09-23 82.94-23L82.94-23Q77.04-23 75.49-14.35L75.49-14.35Q75.04-11.9 75.04-8.8L75.04-8.8 75.09-1.1Q75.09-0.05 73.79-0.05L73.79-0.05Q73.19-0.05 72.82-0.35 72.44-0.65 72.44-1.1L72.44-1.1Q72.34-7.7 72.24-11.05L72.24-11.05Q72.09-15.5 72.09-19.4L72.09-19.4Q72.09-20.45 71.87-21.08 71.64-21.7 71.27-22.35 70.89-23 70.69-23.3L70.69-23.3Q70.54-23.55 70.54-23.9L70.54-23.9Q70.54-24.35 71.04-24.73 71.54-25.1 71.99-25.1L71.99-25.1Q72.49-25.1 73.04-24.35L73.04-24.35Q73.64-23.3 74.09-22.28 74.54-21.25 74.54-20.05L74.54-20.05 74.54-18.9Q75.39-21.7 77.49-23.55 79.59-25.4 83.09-25.4L83.09-25.4ZM109.59-0.1Q105.54-0.1 102.79-1.75 100.04-3.4 98.67-6.13 97.29-8.85 97.29-12.1L97.29-12.1Q97.29-15.5 98.72-18.63 100.14-21.75 102.97-23.7 105.79-25.65 109.79-25.65L109.79-25.65Q114.19-25.65 116.92-23.48 119.64-21.3 120.59-18.6L120.59-18.6Q120.69-18.4 120.69-18.05L120.69-18.05Q120.69-17.3 119.79-17.05L119.79-17.05Q118.64-16.8 118.14-18.05L118.14-18.05Q117.39-20.15 115.27-21.73 113.14-23.3 110.04-23.3L110.04-23.3Q106.94-23.3 104.67-21.7 102.39-20.1 101.19-17.55 99.99-15 99.99-12.2L99.99-12.2Q99.99-9.55 101.09-7.33 102.19-5.1 104.37-3.78 106.54-2.45 109.69-2.45L109.69-2.45Q112.69-2.45 114.77-3.65 116.84-4.85 117.84-6.53 118.84-8.2 118.89-9.75L118.89-9.75Q118.89-10.2 119.19-10.48 119.49-10.75 120.04-10.75L120.04-10.75Q121.34-10.75 121.34-9.5L121.34-9.5Q121.34-7.5 120.07-5.3 118.79-3.1 116.14-1.6 113.49-0.1 109.59-0.1L109.59-0.1ZM139.24 0.1Q135.14 0.1 132.24-1.7 129.34-3.5 127.86-6.4 126.39-9.3 126.39-12.65L126.39-12.65Q126.39-16.1 127.94-19.1 129.49-22.1 132.41-23.88 135.34-25.65 139.19-25.65L139.19-25.65Q142.54-25.65 145.19-24.28 147.84-22.9 149.31-20.48 150.79-18.05 150.79-15L150.79-15Q150.79-13.6 150.46-13.1 150.14-12.6 148.89-12.55L148.89-12.55 128.99-12.05Q128.99-9.65 130.24-7.4 131.49-5.15 133.79-3.73 136.09-2.3 139.19-2.3L139.19-2.3Q141.54-2.3 143.14-3.03 144.74-3.75 145.66-4.67 146.59-5.6 147.84-7.2L147.84-7.2Q148.09-7.55 148.64-7.55L148.64-7.55Q149.14-7.55 149.56-7.18 149.99-6.8 149.99-6.3L149.99-6.3Q149.99-5.9 149.64-5.45L149.64-5.45Q148.04-3.1 145.74-1.5 143.44 0.1 139.24 0.1L139.24 0.1ZM128.99-14.3L148.04-14.85Q148.29-14.85 148.36-15 148.44-15.15 148.44-15.5L148.44-15.5Q148.44-17.7 147.26-19.5 146.09-21.3 143.99-22.3 141.89-23.3 139.29-23.3L139.29-23.3Q136.24-23.3 133.89-21.8 131.54-20.3 130.26-18.18 128.99-16.05 128.99-14.3L128.99-14.3ZM158.79-24Q158.29-24 157.99-24.25 157.69-24.5 157.69-24.95L157.69-24.95Q157.69-27.9 157.74-29.45L157.74-29.45 157.79-34.85Q157.79-35.25 158.09-35.48 158.39-35.7 158.89-35.7L158.89-35.7Q159.44-35.7 159.74-35.48 160.04-35.25 160.04-34.85L160.04-34.85 159.99-29.65Q159.94-28.1 159.94-24.9L159.94-24.9Q159.94-24 158.79-24L158.79-24ZM176.63 0.2Q173.23 0.2 171.01-1.45 168.78-3.1 167.28-5.8L167.28-5.8Q166.93-6.4 166.93-6.65L166.93-6.65Q166.93-7.2 167.48-7.63 168.03-8.05 168.58-7.95L168.58-7.95Q168.83-7.9 169.13-7.58 169.43-7.25 169.73-6.75L169.73-6.75Q170.98-4.65 172.61-3.45 174.23-2.25 176.63-2.25L176.63-2.25Q179.13-2.25 180.71-3.48 182.28-4.7 182.28-6.55L182.28-6.55Q182.28-7.85 181.43-8.72 180.58-9.6 179.33-10.18 178.08-10.75 175.88-11.5L175.88-11.5Q173.28-12.4 171.66-13.2 170.03-14 168.88-15.38 167.73-16.75 167.73-18.85L167.73-18.85Q167.73-20.7 168.71-22.33 169.68-23.95 171.53-24.95 173.38-25.95 175.98-25.95L175.98-25.95Q178.48-25.95 180.46-25 182.43-24.05 183.53-22.4 184.63-20.75 184.63-18.75L184.63-18.75Q184.63-17.95 184.36-17.6 184.08-17.25 183.38-17.25L183.38-17.25Q182.68-17.25 182.41-17.55 182.13-17.85 182.13-18.35L182.13-18.35Q182.03-21.05 180.28-22.3 178.53-23.55 175.98-23.55L175.98-23.55Q172.93-23.55 171.68-22.05 170.43-20.55 170.43-18.9L170.43-18.9Q170.43-17 172.06-15.93 173.68-14.85 176.98-13.7L176.98-13.7Q179.63-12.75 181.21-11.98 182.78-11.2 183.88-9.88 184.98-8.55 184.98-6.55L184.98-6.55Q184.98-3.6 182.63-1.7 180.28 0.2 176.63 0.2L176.63 0.2Z" fill="#000000" data-fill-palette-color="primary"></path><path d="M213.93-0.1Q210.43-0.1 207.9-1.53 205.38-2.95 204.1-5.35 202.83-7.75 202.83-10.65L202.83-10.65Q202.83-12.05 204.18-12.05L204.18-12.05Q205.53-12.05 205.53-10.85L205.53-10.85Q205.53-7 207.83-4.8 210.13-2.6 213.93-2.6L213.93-2.6Q217.23-2.6 219.25-4.17 221.28-5.75 221.28-8.7L221.28-8.7Q221.28-11.8 219.1-13.48 216.93-15.15 212.68-16.35L212.68-16.35Q209.98-17.1 207.95-17.98 205.93-18.85 204.33-20.75 202.73-22.65 202.73-25.75L202.73-25.75Q202.73-28.55 204.18-30.75 205.63-32.95 208.08-34.15 210.53-35.35 213.38-35.35L213.38-35.35Q216.53-35.35 218.88-34.02 221.23-32.7 222.45-30.53 223.68-28.35 223.68-25.9L223.68-25.9Q223.68-24.5 222.38-24.5L222.38-24.5Q221.03-24.5 221.03-25.75L221.03-25.75Q221.03-28.8 218.9-30.8 216.78-32.8 213.38-32.8L213.38-32.8Q209.73-32.8 207.58-30.8 205.43-28.8 205.43-25.75L205.43-25.75Q205.43-23.6 206.58-22.28 207.73-20.95 209.48-20.2 211.23-19.45 214.28-18.55L214.28-18.55Q216.88-17.8 218.88-16.82 220.88-15.85 222.43-13.85 223.98-11.85 223.98-8.75L223.98-8.75Q223.98-4.8 221.18-2.45 218.38-0.1 213.93-0.1L213.93-0.1ZM250.83-18.8Q251.53-15.95 251.75-11.8 251.98-7.65 251.98-1.05L251.98-1.05Q251.98-0.55 251.6-0.25 251.23 0.05 250.63 0.05L250.63 0.05Q250.03 0.05 249.65-0.28 249.28-0.6 249.28-1.2L249.28-1.2Q249.28-7.95 249.03-12.13 248.78-16.3 248.18-18.45L248.18-18.45Q247.48-20.85 246.18-22 244.88-23.15 242.68-23.15L242.68-23.15Q239.83-23.15 237.83-21.5 235.83-19.85 234.83-17.48 233.83-15.1 233.83-13.05L233.83-13.05 233.78-1Q233.78-0.55 233.38-0.28 232.98 0 232.38 0L232.38 0Q231.78 0 231.43-0.3 231.08-0.6 231.08-1.05L231.08-1.05Q231.08-11.7 231.33-20.7L231.33-20.7Q231.53-28.05 232.18-37.9L232.18-37.9Q232.23-38.6 232.53-38.93 232.83-39.25 233.48-39.25L233.48-39.25Q234.13-39.25 234.48-38.95 234.83-38.65 234.78-38.1L234.78-38.1 233.88-20.4Q235.08-22.55 237.35-24.1 239.63-25.65 242.98-25.65L242.98-25.65Q246.23-25.65 248.08-23.98 249.93-22.3 250.83-18.8L250.83-18.8ZM269.97 0.05Q264.62 0.05 260.87-2.88 257.12-5.8 257.12-12.35L257.12-12.35Q257.12-16.3 258.6-19.35 260.07-22.4 262.92-24.1 265.77-25.8 269.72-25.8L269.72-25.8Q273.47-25.8 276.42-24.25 279.37-22.7 281.1-19.68 282.82-16.65 282.82-12.45L282.82-12.45Q282.82-6.3 279.25-3.13 275.67 0.05 269.97 0.05L269.97 0.05ZM269.92-2.35Q272.72-2.35 275.02-3.45 277.32-4.55 278.72-6.85 280.12-9.15 280.12-12.5L280.12-12.5Q280.12-15.8 278.8-18.28 277.47-20.75 275.12-22.1 272.77-23.45 269.82-23.45L269.82-23.45Q266.82-23.45 264.55-22.1 262.27-20.75 261.05-18.25 259.82-15.75 259.82-12.45L259.82-12.45Q259.82-7.15 262.82-4.75 265.82-2.35 269.92-2.35L269.92-2.35ZM301.82-25.65Q305.07-25.65 307.85-24.3 310.62-22.95 312.3-20.08 313.97-17.2 313.97-12.95L313.97-12.95Q313.97-8.85 312.4-5.93 310.82-3 308-1.53 305.17-0.05 301.57-0.05L301.57-0.05Q298.37-0.05 295.8-1.05 293.22-2.05 292.07-3L292.07-3 291.97 0.7Q291.67 9.45 291.67 10L291.67 10Q291.57 11.2 290.32 11.2L290.32 11.2Q288.97 11.2 288.97 9.85L288.97 9.85Q289.27 2.55 289.37-2L289.37-2 289.42-5.1Q289.52-11.6 289.52-17.75L289.52-17.75Q289.52-19.5 289.12-20.55 288.72-21.6 287.87-22.7L287.87-22.7Q287.82-22.75 287.65-22.93 287.47-23.1 287.47-23.4L287.47-23.4Q287.47-23.9 287.97-24.3 288.47-24.7 288.97-24.7L288.97-24.7Q289.42-24.7 289.77-24.35L289.77-24.35Q290.17-23.95 290.85-22.83 291.52-21.7 291.77-20.7L291.77-20.7Q292.87-22.5 295.47-24.08 298.07-25.65 301.82-25.65L301.82-25.65ZM301.62-2.4Q305.92-2.4 308.6-5.15 311.27-7.9 311.27-12.95L311.27-12.95Q311.27-16.6 309.9-18.9 308.52-21.2 306.4-22.23 304.27-23.25 301.82-23.25L301.82-23.25Q299.07-23.25 296.87-22.05 294.67-20.85 293.45-19.3 292.22-17.75 292.22-16.85L292.22-16.85Q292.22-10.4 292.17-6.3L292.17-6.3Q292.62-5.45 294.07-4.53 295.52-3.6 297.55-3 299.57-2.4 301.62-2.4L301.62-2.4Z" fill="#000000" data-fill-palette-color="primary"></path></g></svg></g></svg></g></svg></g></svg></g><g transform="matrix(1,0,0,1,431.13023269818945,0)"><svg viewBox="0 0 99.02924976237817 87.51636270390351" height="87.51636270390351" width="99.02924976237817"><g><svg xmlns="http://www.w3.org/2000/svg" xmlns:xlink="http://www.w3.org/1999/xlink" version="1.1" x="0" y="0" viewBox="9.220000267028809 11.140000343322754 85.12999725341797 75.23300170898438" enable-background="new 0 0 100 100" xml:space="preserve" height="87.51636270390351" width="99.02924976237817" class="icon-icon-0" data-fill-palette-color="accent" id="icon-0"><g fill="#ffffff" data-fill-palette-color="accent"><g fill="#ffffff" data-fill-palette-color="accent"><path d="M70.611 34.62l-4.199-21.618h6.708l6.993 21.618H70.611zM47.05 34.62l1.389-21.618h6.446l1.327 21.618H47.05zM23.523 34.62l6.919-21.618h6.751L32.911 34.62H23.523zM22.957 65.521V39.557c0.93 1.638 3.045 2.978 5.306 2.978 2.572 0 4.634-1.735 5.849-3.668 1.213 1.933 3.308 3.668 5.881 3.668 2.572 0 4.684-1.735 5.896-3.668 1.213 1.933 3.332 3.668 5.906 3.668 2.572 0 4.696-1.735 5.91-3.668 1.212 1.933 3.337 3.668 5.908 3.668 2.574 0 4.699-1.735 5.914-3.668 1.213 1.933 3.209 3.668 5.783 3.668 2.262 0 4.373-1.34 5.303-2.978v25.964H22.957L22.957 65.521zM94.25 34.62c0.01 0 0.02-0.23-0.02-0.36-0.061-0.19-0.181-0.32-0.32-0.44l-9.73-21.9c-0.14-0.46-0.58-0.78-1.069-0.78H20.46c-0.49 0-0.92 0.33-1.07 0.8L9.8 33.74c-0.22 0.15-0.4 0.33-0.48 0.6-0.03 0.11-0.01 0.28-0.01 0.28H9.22l0.09 1.25c0.2 2.63 3.13 6.64 7.04 6.64 0.67 0 1.03-0.1 1.96 2.69l0.065 41.173c1.78 0 27.875-0.043 27.875-0.043v-9.95c0-3.25 2.63-5.88 5.87-5.88 1.62 0 3.1 0.66 4.16 1.72C57.34 73.28 58 74.76 58 76.38v9.95c0 0 24.105-0.079 27.125-0.079L85.27 45.2c0.931-2.79 1.28-2.67 1.95-2.67 3.91 0 6.82-4.03 7.021-6.66l0.109-1.25H94.25z" fill="#000000" data-fill-palette-color="accent"></path></g></g><rect x="29.5" y="46.5" width="13.5" height="12.75" fill="#000000" data-fill-palette-color="accent"></rect><rect x="45.375" y="46.5" width="13.5" height="12.75" fill="#000000" data-fill-palette-color="accent"></rect><rect x="61.25" y="46.5" width="13.5" height="12.75" fill="#000000" data-fill-palette-color="accent"></rect></svg></g></svg></g></svg></g><defs></defs></svg><rect width="395.5199999999999" height="65.29067746934524" fill="none" stroke="none" visibility="hidden"></rect></g></svg></g></svg>